<svg width="48" height="48" viewBox="0 0 48 48" fill="none" xmlns="http://www.w3.org/2000/svg">
<g filter="url(#filter0_d_431671_2299)">
<path d="M44 20C44 25.5228 41.7614 30.5228 38.1421 34.1421C34.5228 37.7614 29.5228 40 24 40C18.4772 40 13.4772 37.7614 9.85786 34.1421C6.23858 30.5228 4 25.5228 4 20C4 14.4772 6.23858 9.47715 9.85786 5.85786C13.4772 2.23858 18.4772 0 24 0C29.5228 0 34.5228 2.23858 38.1421 5.85786C41.7614 9.47715 44 14.4772 44 20Z" fill="#4D5AE5"/>
<g clip-path="url(#clip0_431671_2299)">
<path d="M36 12.5585C35.1075 12.95 34.1565 13.2095 33.165 13.3355C34.185 12.7265 34.9635 11.7695 35.3295 10.616C34.3785 11.183 33.3285 11.5835 32.2095 11.807C31.3065 10.8455 30.0195 10.25 28.6155 10.25C25.8915 10.25 23.6985 12.461 23.6985 15.1715C23.6985 15.5615 23.7315 15.9365 23.8125 16.2935C19.722 16.094 16.1025 14.1335 13.671 11.147C13.2465 11.8835 12.9975 12.7265 12.9975 13.634C12.9975 15.338 13.875 16.8485 15.183 17.723C14.3925 17.708 13.617 17.4785 12.96 17.117C12.96 17.132 12.96 17.1515 12.96 17.171C12.96 19.562 14.6655 21.548 16.902 22.0055C16.5015 22.115 16.065 22.1675 15.612 22.1675C15.297 22.1675 14.979 22.1495 14.6805 22.0835C15.318 24.032 17.127 25.4645 19.278 25.511C17.604 26.8205 15.4785 27.6095 13.1775 27.6095C12.774 27.6095 12.387 27.5915 12 27.542C14.1795 28.9475 16.7625 29.75 19.548 29.75C28.602 29.75 33.552 22.25 33.552 15.749C33.552 15.5315 33.5445 15.3215 33.534 15.113C34.5105 14.42 35.331 13.5545 36 12.5585Z" fill="#F4F4FD"/>
</g>
</g>
<defs>
<filter id="filter0_d_431671_2299" x="0" y="0" width="48" height="48" filterUnits="userSpaceOnUse" color-interpolation-filters="sRGB">
<feFlood flood-opacity="0" result="BackgroundImageFix"/>
<feColorMatrix in="SourceAlpha" type="matrix" values="0 0 0 0 0 0 0 0 0 0 0 0 0 0 0 0 0 0 127 0" result="hardAlpha"/>
<feOffset dy="4"/>
<feGaussianBlur stdDeviation="2"/>
<feComposite in2="hardAlpha" operator="out"/>
<feColorMatrix type="matrix" values="0 0 0 0 0 0 0 0 0 0 0 0 0 0 0 0 0 0 0.25 0"/>
<feBlend mode="normal" in2="BackgroundImageFix" result="effect1_dropShadow_431671_2299"/>
<feBlend mode="normal" in="SourceGraphic" in2="effect1_dropShadow_431671_2299" result="shape"/>
</filter>
<clipPath id="clip0_431671_2299">
<rect width="24" height="24" fill="white" transform="translate(12 8)"/>
</clipPath>
</defs>
</svg>
